#!OML:ASF H:\Male1\Project 1\Capture day 1\Session 1\Male1.ASF
:FULLY-SPECIFIED
:DEGREES
140
root -9.93824 13.8997 1.4274 179.217 13.2557 -184.822
lowerback 18.8139 -0.867348 -11.8307
upperback 5.797 -1.7967 -9.55303
thorax -4.00239 0.0125717 -3.31444
lowerneck -6.6527 5.64027 3.24875
upperneck -9.74326 8.2507 1.49707
head -1.8836 4.31263 -0.0478329
rclavicle -7.15625e-015 -3.18055e-014
rhumerus -40.0871 29.9254 -80.0713
rradius 111.036
rwrist -33.9055
rhand -37.2673 3.03353
rfingers 7.12502
rthumb -10.3325 -26.6926
lclavicle -7.15625e-015 -3.18055e-014
lhumerus -14.0425 -16.1168 56.5298
lradius 88.8259
lwrist 22.9238
lhand -33.4219 18.9701
lfingers 7.12502
lthumb -6.62154 48.8466
rfemur -30.5512 0.817634 32.0136
rtibia 66.9803
rfoot -21.1754 -20.0831
rtoes -21.598
lfemur -20.9836 -1.84874 -10.6053
ltibia 56.8485
lfoot -20.0103 5.50399
ltoes -18.3604
141
root -9.48985 14.2856 1.33263 178.313 14.3704 -185.112
lowerback 17.649 -1.23768 -12.3914
upperback 5.62273 -2.0347 -10.9755
thorax -3.56722 -0.0174264 -4.53152
lowerneck -6.2559 6.14475 2.84356
upperneck -9.3398 9.10389 3.60128
head -1.94664 4.72541 0.65765
rclavicle -9.54166e-015 -7.31528e-014
rhumerus -44.5603 32.0572 -80.4852
rradius 112.904
rwrist -30.6423
rhand -36.2755 5.35386
rfingers 7.12502
rthumb -9.37562 -24.4176
lclavicle -9.54166e-015 -7.31528e-014
lhumerus -16.5906 -15.2251 50.8969
lradius 90.176
lwrist 21.9155
lhand -33.5283 17.3741
lfingers 7.12502
lthumb -6.72422 47.2473
rfemur -26.1065 0.514431 32.5038
rtibia 61.4606
rfoot -17.6436 -16.4907
rtoes -14.472
lfemur -16.3085 -2.53541 -9.85066
ltibia 51.3441
lfoot -14.0852 6.72629
ltoes -13.8353
142
root -9.02132 14.7164 1.24055 177.428 15.1821 -184.795
lowerback 16.7529 -1.45882 -12.5867
upperback 5.55048 -2.06743 -11.931
thorax -3.17343 0.0254901 -5.48351
lowerneck -5.57775 6.48994 2.33281
upperneck -9.42304 9.74535 4.99885
head -2.20579 5.0331 1.14521
rclavicle 3.97569e-014 6.04305e-014
rhumerus -49.2985 33.3036 -80.4051
rradius 113.969
rwrist -25.5404
rhand -32.8012 9.89471
rfingers 7.12502
rthumb -6.02226 -19.9997
lclavicle 3.97569e-014 6.04305e-014
lhumerus -18.8186 -14.28 46.2063
lradius 90.0835
lwrist 20.4766
lhand -33.6403 16.4346
lfingers 7.12502
lthumb -6.83234 46.3044
rfemur -21.2116 -0.0649647 33.4502
rtibia 55.4318
rfoot -12.1599 -13.5512
rtoes -10.1257
lfemur -12.1304 -4.96172 -8.98982
ltibia 46.3652
lfoot -7.00085 10.476
ltoes -8.98215
143
root -8.56716 15.1192 1.15862 177.181 15.5952 -183.93
lowerback 15.524 -1.6325 -12.4956
upperback 5.52934 -2.01819 -12.3103
thorax -2.54818 0.0410255 -5.95197
lowerneck -4.8605 6.7735 2.05145
upperneck -9.70722 10.2255 5.53246
head -2.48439 5.2498 1.32167
rclavicle 1.04163e-013 1.94014e-013
rhumerus -54.6989 34.7583 -80.1657
rradius 115.286
rwrist -22.245
rhand -31.1907 13.0863
rfingers 7.12502
rthumb -4.46731 -16.8466
lclavicle 1.04163e-013 1.94014e-013
lhumerus -20.5586 -12.8616 42.5623
lradius 89.06
lwrist 19.3563
lhand -32.7704 16.3697
lfingers 7.12502
lthumb -5.99255 46.2649
rfemur -17.1119 -0.804532 34.739
rtibia 49.4636
rfoot -5.10546 -11.0256
rtoes -16.321
lfemur -9.13241 -9.08654 -8.33201
ltibia 42.3469
lfoot -0.259223 16.1414
ltoes -10.6339
144
root -8.10907 15.5277 1.08795 177.505 15.7267 -182.391
lowerback 14.2543 -1.59137 -12.0917
upperback 5.49805 -1.79497 -11.9453
thorax -1.91522 0.0635761 -5.77762
lowerneck -4.19437 6.92207 1.76348
upperneck -9.8114 10.4213 5.52987
head -2.65606 5.32249 1.33666
rclavicle 9.22361e-014 1.90833e-013
rhumerus -59.5945 35.096 -79.6627
rradius 115.656
rwrist -21.2892
rhand -30.0488 15.4087
rfingers 7.12502
rthumb -3.36455 -14.5445
lclavicle 9.22361e-014 1.90833e-013
lhumerus -21.9164 -11.2374 40.4747
lradius 87.389
lwrist 19.9106
lhand -31.6327 17.6622
lfingers 7.12502
lthumb -4.89403 47.5857
rfemur -13.6028 -1.05584 36.2923
rtibia 43.2894
rfoot 2.17946 -9.70064
rtoes -23.3676
lfemur -7.77762 -13.9664 -7.65715
ltibia 40.2828
lfoot 0.0251187 25.2976
ltoes 8.36605
145
root -7.64625 15.9258 1.04398 178.095 15.7369 -181.619
lowerback 12.9094 -1.49145 -12.15
upperback 5.34707 -1.52236 -11.6934
thorax -1.34018 0.132234 -5.48845
lowerneck -3.64012 7.03533 1.53595
upperneck -9.65666 10.557 5.6602
head -2.72647 5.37067 1.39347
rclavicle -5.00937e-014 1.27222e-014
rhumerus -64.7818 34.344 -79.6765
rradius 116.007
rwrist -22.8965
rhand -28.5935 15.0917
rfingers 7.12502
rthumb -1.95912 -14.8791
lclavicle -5.00937e-014 1.27222e-014
lhumerus -22.8353 -9.73104 39.0852
lradius 85.6404
lwrist 22.5308
lhand -31.5769 18.387
lfingers 7.12502
lthumb -4.84018 48.3117
rfemur -11.5992 -0.548412 36.6285
rtibia 38.0422
rfoot 7.83955 -9.62686
rtoes -28.1914
lfemur -7.3629 -16.5273 -7.90494
ltibia 39.5476
lfoot -10.0736 31.684
ltoes 21.4346
146
root -7.19709 16.2686 1.02329 178.894 15.7267 -177.663
lowerback 12.6187 -1.28552 -9.04159
upperback 5.38935 -1.25039 -10.3314
thorax -1.28705 0.0985953 -5.71993
lowerneck -3.27777 7.25072 0.85034
upperneck -9.13516 10.81 6.05389
head -2.68971 5.49281 1.62196
rclavicle 7.95139e-015 0
rhumerus -69.3417 33.0964 -79.7932
rradius 115.551
rwrist -25.3726
rhand -28.7189 13.2057
rfingers 7.12502
rthumb -2.08024 -16.7639
lclavicle 7.95139e-015 0
lhumerus -23.7266 -7.89659 38.6261
lradius 83.8088
lwrist 24.6385
lhand -31.4177 19.7659
lfingers 7.12502
lthumb -4.68649 49.694
rfemur -9.43332 -1.10136 40.1225
rtibia 33.7453
rfoot 11.7176 -7.73137
rtoes -38.0987
lfemur -7.50345 -16.1321 -4.63564
ltibia 40.3094
lfoot -14.1099 34.4473
ltoes 28.9669
147
root -6.7657 16.606 1.03413 179.561 15.9394 -176.476
lowerback 12.0658 -0.932206 -7.96675
upperback 5.42766 -0.675351 -9.94952
thorax -0.962024 0.341084 -5.96842
lowerneck -3.19834 7.32529 1.45739
upperneck -9.10935 10.8669 5.60629
head -2.62828 5.51241 1.37554
rclavicle 5.56597e-015 1.08139e-013
rhumerus -71.9802 30.6451 -80.5812
rradius 114.037
rwrist -28.4784
rhand -29.2925 9.50553
rfingers 7.12502
rthumb -2.63418 -20.4579
lclavicle 5.56597e-015 1.08139e-013
lhumerus -23.5682 -6.26997 38.0116
lradius 82.1557
lwrist 26.3624
lhand -32.4385 20.8647
lfingers 7.12502
lthumb -5.67213 50.7688
rfemur -8.84784 -1.35434 40.4809
rtibia 31.5619
rfoot 13.1065 -4.61266
rtoes -34.9951
lfemur -8.38928 -14.6909 -4.4142
ltibia 41.2119
lfoot -13.0769 33.2503
ltoes 25.8482
148
root -6.36956 16.884 1.07514 179.731 16.2925 -176.212
lowerback 12.124 -0.639281 -7.66239
upperback 5.52832 -0.286204 -9.64714
thorax -0.877945 0.515794 -5.85726
lowerneck -3.2886 7.47967 1.77991
upperneck -9.08301 11.0038 5.02543
head -2.54649 5.58096 1.14234
rclavicle 1.59028e-014 1.65389e-013
rhumerus -73.3405 28.9678 -81.6412
rradius 112.005
rwrist -31.0638
rhand -31.3321 6.55041
rfingers 7.12502
rthumb -4.6038 -23.3796
lclavicle 1.59028e-014 1.65389e-013
lhumerus -24.2 -4.41802 37.8906
lradius 80.7817
lwrist 25.3362
lhand -33.4295 21.1977
lfingers 7.12502
lthumb -6.62884 51.074
rfemur -8.53317 -0.89787 39.8842
rtibia 31.1322
rfoot 11.4407 -4.49964
rtoes -32.8005
lfemur -9.3517 -12.1554 -5.33864
ltibia 42.3191
lfoot -8.43288 26.0193
ltoes 15.2212
149
root -5.98136 17.1406 1.12918 179.57 16.8755 -176.063
lowerback 12.6486 -0.409769 -7.18893
upperback 5.79534 0.0390049 -9.45209
thorax -0.872837 0.683791 -5.96198
lowerneck -3.65816 7.63967 2.0027
upperneck -9.25311 11.1801 4.47589
head -2.49083 5.6819 0.945107
rclavicle -5.56597e-015 -1.27222e-013
rhumerus -72.879 27.4623 -82.9908
rradius 108.483
rwrist -31.2078
rhand -33.0754 5.37778
rfingers 7.12502
rthumb -6.287 -24.5089
lclavicle -5.56597e-015 -1.27222e-013
lhumerus -25.3896 -2.24885 37.597
lradius 79.9683
lwrist 23.8147
lhand -33.9912 20.8961
lfingers 7.12502
lthumb -7.17106 50.7546
rfemur -8.88203 0.338655 38.8123
rtibia 32.6465
rfoot 9.36014 -9.64583
rtoes -33.5321
lfemur -9.69563 -9.96044 -6.64324
ltibia 42.8518
lfoot -5.28676 18.4852
ltoes 4.50696
150
root -5.60907 17.3431 1.19266 179.572 17.4342 -176.249
lowerback 13.0564 -0.177279 -6.90161
upperback 6.03199 0.364279 -9.24509
thorax -0.830176 0.849483 -5.94961
lowerneck -3.85025 7.72137 2.06676
upperneck -9.76768 11.2761 3.77867
head -2.57907 5.74337 0.713504
rclavicle 6.52014e-014 1.24042e-013
rhumerus -72.0905 26.4287 -84.2907
rradius 104.829
rwrist -30.0649
rhand -35.0236 6.41364
rfingers 7.12502
rthumb -8.16751 -23.4085
lclavicle 6.52014e-014 1.24042e-013
lhumerus -26.5869 -0.122721 37.7217
lradius 79.1225
lwrist 22.4448
lhand -34.4892 20.2852
lfingers 7.12502
lthumb -7.65178 50.1268
rfemur -10.0687 0.946231 37.2745
rtibia 35.0335
rfoot 7.54761 -13.8345
rtoes -34.5666
lfemur -10.2092 -9.01371 -8.54819
ltibia 43.1223
lfoot -3.77582 11.676
ltoes -6.56613
